<svg xmlns="http://www.w3.org/2000/svg" viewBox="0 0 642.00 711.00">
  <g transform="translate(-21.50,-24.50)">
    <path d="M 552.00 735.23 L 114.00 735.45 L 91.00 728.23 L 64.66 713.00 L 33.76 675.00 L 21.50 634.00 L 21.55 624.00 L 22.50 619.00 L 22.77 205.00 L 33.76 172.00 L 52.53 146.00 L 68.00 130.76 L 102.00 115.78 L 107.00 114.55 L 115.00 114.45 L 141.00 111.50 L 157.00 114.45 L 173.00 109.27 L 174.50 93.00 L 174.50 68.00 L 175.45 64.00 L 175.55 51.00 L 180.76 39.00 L 191.00 28.76 L 202.00 24.55 L 225.00 25.55 L 233.00 31.53 L 243.00 41.66 L 244.50 46.00 L 245.55 105.00 L 249.51 110.00 L 254.00 113.19 L 265.00 114.50 L 420.00 114.50 L 435.00 111.19 L 439.19 107.00 L 439.55 87.00 L 440.50 83.00 L 440.55 51.00 L 446.00 38.66 L 459.00 25.81 L 488.00 25.78 L 501.49 35.00 L 509.22 47.00 L 509.55 68.00 L 510.50 72.00 L 510.55 105.00 L 514.74 113.00 L 544.00 111.55 L 596.00 119.77 L 624.00 136.53 L 641.47 157.00 L 646.27 164.00 L 659.22 193.00 L 663.50 216.00 L 663.45 634.00 L 656.22 660.00 L 631.00 700.47 L 606.00 721.20 L 573.00 734.23 L 552.00 735.23 Z M 357.50 675.00 L 548.00 674.45 L 564.00 671.22 L 578.00 664.24 L 588.47 654.00 L 590.27 651.00 L 596.50 636.00 L 596.50 216.00 L 595.27 211.00 L 582.47 187.00 L 564.00 175.55 L 515.00 175.81 L 510.81 180.00 L 509.19 198.00 L 503.00 208.31 L 493.00 216.22 L 480.00 219.45 L 476.00 219.50 L 459.00 215.20 L 447.94 205.00 L 441.77 195.00 L 440.55 191.00 L 440.22 182.00 L 438.00 178.51 L 434.00 175.55 L 252.00 175.50 L 249.70 176.00 L 245.81 180.00 L 245.45 192.00 L 244.22 198.00 L 237.00 209.49 L 228.00 216.22 L 215.00 219.45 L 209.00 219.45 L 194.00 215.20 L 182.53 204.00 L 176.81 195.00 L 175.55 189.00 L 175.19 180.00 L 169.00 174.78 L 146.00 171.51 L 115.00 175.78 L 104.00 182.69 L 89.81 204.00 L 85.55 224.00 L 85.50 622.00 L 89.81 643.00 L 105.00 664.23 L 121.00 672.23 L 139.00 675.45 L 357.50 675.00 Z M 178.00 626.19 L 173.00 626.45 L 157.00 624.18 L 152.78 617.00 L 152.55 614.00 L 181.23 539.00 L 185.55 495.00 L 196.78 449.00 L 218.76 398.00 L 232.00 381.51 L 273.66 343.00 L 309.00 323.77 L 345.00 310.77 L 401.00 296.77 L 451.00 289.45 L 509.00 272.55 L 517.00 274.54 L 520.45 281.00 L 520.45 302.00 L 510.45 364.00 L 508.23 372.00 L 482.23 440.00 L 468.27 468.00 L 438.47 510.00 L 395.34 549.00 L 355.00 571.24 L 346.00 575.23 L 317.00 582.45 L 265.00 582.50 L 227.00 570.01 L 226.55 566.00 L 227.55 560.00 L 229.76 554.00 L 268.00 498.66 L 322.00 444.53 L 348.00 425.01 L 348.00 422.07 L 345.00 421.78 L 315.66 438.00 L 261.00 485.69 L 211.76 556.00 L 186.23 617.00 L 184.47 620.00 L 178.00 626.19 Z" fill="#35534A" fill-rule="evenodd"/>
  </g>
</svg>