<svg xmlns="http://www.w3.org/2000/svg" viewBox="0 0 981.50 234.45">
  <g transform="translate(-24.50,-50.55)">
    <path d="M 192.00 264.23 L 61.00 264.45 L 54.00 262.23 L 46.66 258.00 L 37.76 247.00 L 34.50 236.00 L 34.77 112.00 L 37.76 103.00 L 43.53 95.00 L 48.00 90.76 L 58.00 86.55 L 69.00 85.55 L 73.00 86.40 L 78.00 84.94 L 78.55 68.00 L 80.00 64.66 L 83.00 61.76 L 86.00 60.55 L 93.00 60.81 L 98.00 65.70 L 98.57 84.00 L 101.00 86.22 L 148.00 86.50 L 153.00 85.43 L 154.42 84.00 L 154.55 68.00 L 156.00 64.66 L 160.00 60.81 L 168.00 60.78 L 172.00 63.51 L 174.22 67.00 L 174.55 84.00 L 175.73 86.00 L 184.00 85.55 L 199.00 87.77 L 207.00 92.53 L 213.24 100.00 L 217.23 109.00 L 218.50 116.00 L 218.45 235.00 L 216.23 243.00 L 209.47 254.00 L 202.00 260.24 L 192.00 264.23 Z M 185.50 247.00 L 190.00 246.22 L 194.34 244.00 L 197.24 241.00 L 199.45 236.00 L 199.50 115.00 L 195.47 107.00 L 190.00 103.55 L 176.00 103.58 L 174.58 105.00 L 174.22 110.00 L 172.47 113.00 L 170.00 115.20 L 165.00 116.49 L 160.00 115.20 L 156.53 112.00 L 154.78 109.00 L 154.42 105.00 L 153.00 103.58 L 100.00 103.58 L 98.58 105.00 L 98.22 110.00 L 96.47 113.00 L 94.00 115.20 L 89.00 116.49 L 84.00 115.20 L 80.53 112.00 L 78.78 109.00 L 78.42 105.00 L 77.00 103.58 L 70.00 102.55 L 61.00 103.78 L 58.00 105.53 L 53.77 112.00 L 52.50 118.00 L 52.50 232.00 L 53.78 238.00 L 57.94 244.00 L 62.00 246.22 L 69.00 247.50 L 185.50 247.00 Z M 79.00 233.19 L 73.00 232.42 L 71.78 230.00 L 80.23 208.00 L 81.55 195.00 L 84.78 182.00 L 90.76 168.00 L 95.00 162.69 L 106.66 152.00 L 116.00 146.77 L 127.00 142.77 L 143.00 138.77 L 158.00 136.45 L 174.00 131.78 L 176.26 132.00 L 177.45 134.00 L 177.45 139.00 L 174.23 159.00 L 166.27 180.00 L 162.24 188.00 L 154.00 199.49 L 141.34 211.00 L 128.00 218.22 L 119.00 220.45 L 104.00 220.50 L 93.06 217.00 L 93.76 213.00 L 105.00 196.66 L 120.00 181.51 L 128.67 175.00 L 128.00 174.01 L 126.00 174.81 L 118.67 179.00 L 103.00 192.69 L 88.76 213.00 L 81.19 231.00 L 79.00 233.19 Z" fill="#FFFFFF" fill-rule="evenodd"/>
    <g fill="#FFFFFF">
<path d="M786 915Q877 915 924.0 955.0Q971 995 971 1073Q971 1150 924.0 1190.5Q877 1231 786 1231H573V915ZM799 262Q915 262 973.5 311.0Q1032 360 1032 459Q1032 556 974.0 604.5Q916 653 799 653H573V262ZM1157 799Q1281 763 1349.0 666.0Q1417 569 1417 428Q1417 212 1271.0 106.0Q1125 0 827 0H188V1493H766Q1077 1493 1216.5 1399.0Q1356 1305 1356 1098Q1356 989 1305.0 912.5Q1254 836 1157 799Z" transform="translate(250.00,230.00) scale(0.059258,-0.059258)" />
<path d="M705 891Q586 891 523.5 805.5Q461 720 461 559Q461 398 523.5 312.5Q586 227 705 227Q822 227 884.0 312.5Q946 398 946 559Q946 720 884.0 805.5Q822 891 705 891ZM705 1147Q994 1147 1156.5 991.0Q1319 835 1319 559Q1319 283 1156.5 127.0Q994 -29 705 -29Q415 -29 251.5 127.0Q88 283 88 559Q88 835 251.5 991.0Q415 1147 705 1147Z" transform="translate(342.50,230.00) scale(0.059258,-0.059258)" />
<path d="M705 891Q586 891 523.5 805.5Q461 720 461 559Q461 398 523.5 312.5Q586 227 705 227Q822 227 884.0 312.5Q946 398 946 559Q946 720 884.0 805.5Q822 891 705 891ZM705 1147Q994 1147 1156.5 991.0Q1319 835 1319 559Q1319 283 1156.5 127.0Q994 -29 705 -29Q415 -29 251.5 127.0Q88 283 88 559Q88 835 251.5 991.0Q415 1147 705 1147Z" transform="translate(425.88,230.00) scale(0.059258,-0.059258)" />
<path d="M172 1556H530V709L942 1120H1358L811 606L1401 0H967L530 467V0H172Z" transform="translate(509.25,230.00) scale(0.059258,-0.059258)" />
<path d="M590 283H1247V0H162V283L707 764Q780 830 815.0 893.0Q850 956 850 1024Q850 1129 779.5 1193.0Q709 1257 592 1257Q502 1257 395.0 1218.5Q288 1180 166 1104V1432Q296 1475 423.0 1497.5Q550 1520 672 1520Q940 1520 1088.5 1402.0Q1237 1284 1237 1073Q1237 951 1174.0 845.5Q1111 740 909 563Z" transform="translate(589.96,230.00) scale(0.059258,-0.059258)" />
<path d="M768 231Q883 231 943.5 315.0Q1004 399 1004 559Q1004 719 943.5 803.0Q883 887 768 887Q653 887 591.5 802.5Q530 718 530 559Q530 400 591.5 315.5Q653 231 768 231ZM530 956Q604 1054 694.0 1100.5Q784 1147 901 1147Q1108 1147 1241.0 982.5Q1374 818 1374 559Q1374 300 1241.0 135.5Q1108 -29 901 -29Q784 -29 694.0 17.5Q604 64 530 162V0H172V1556H530Z" transform="translate(674.41,230.00) scale(0.059258,-0.059258)" />
<path d="M1290 563V461H453Q466 335 544.0 272.0Q622 209 762 209Q875 209 993.5 242.5Q1112 276 1237 344V68Q1110 20 983.0 -4.5Q856 -29 729 -29Q425 -29 256.5 125.5Q88 280 88 559Q88 833 253.5 990.0Q419 1147 709 1147Q973 1147 1131.5 988.0Q1290 829 1290 563ZM922 682Q922 784 862.5 846.5Q803 909 707 909Q603 909 538.0 850.5Q473 792 457 682Z" transform="translate(761.28,230.00) scale(0.059258,-0.059258)" />
<path d="M909 1556V1321H711Q635 1321 605.0 1293.5Q575 1266 575 1198V1120H881V864H575V0H217V864H39V1120H217V1198Q217 1381 319.0 1468.5Q421 1556 635 1556Z" transform="translate(843.59,230.00) scale(0.059258,-0.059258)" />
<path d="M172 1120H530V0H172ZM172 1556H530V1264H172Z" transform="translate(896.39,230.00) scale(0.059258,-0.059258)" />
<path d="M563 1438V1120H932V864H563V389Q563 311 594.0 283.5Q625 256 717 256H901V0H594Q382 0 293.5 88.5Q205 177 205 389V864H27V1120H205V1438Z" transform="translate(937.99,230.00) scale(0.059258,-0.059258)" />
    </g>
  </g>
</svg>